<svg xmlns="http://www.w3.org/2000/svg" width="199" height="81"><g fill="none" fill-rule="evenodd"><path fill="#0064FF" d="M32.303 40.823l3.273-2.685-3.273-2.684 3.273 2.684-3.273 2.685zm0-22.302l3.273 2.685-3.273 2.683 3.273-2.683-3.273-2.685zm3.421 19.437l-3.273-2.684-.065-.053H20.902V24.122h11.484l.065-.052 3.273-2.684.22-.18-.22-.18-3.273-2.685-.064-.053H20.902V3.558l-.053-.065L17.986 0 15.12 3.493l-.053.064v14.731H3.556l-.065.053L.22 21.025l-.22.18.22.181 3.27 2.684.065.052h11.512v11.099H3.556l-.065.053-3.27 2.684-.22.18.22.181 3.27 2.684.065.054h11.512v35.856l.053.065 2.685 3.273.18.22 2.863-3.493.053-.065V41.057h11.485l.064-.054 3.493-2.865-.22-.18z"/><path d="M46.817 30.027h3.309v17.21h8.663v2.935H46.817V30.027m26.649 5.411v14.734h-2.734l-.346-1.9c-.92 1.152-2.272 2.073-4.546 2.073-3.137 0-5.813-1.698-5.813-6.792v-8.115h3.108v7.799c0 2.877 1.151 4.403 3.425 4.403 2.359 0 3.798-1.842 3.798-4.892v-7.31h3.108m16.318 6.619v8.115h-3.108v-7.913c0-2.82-1.21-4.317-3.54-4.317-2.475 0-3.943 1.812-3.943 4.806v7.424h-3.108V35.438h2.706l.345 1.957c.92-1.18 2.36-2.13 4.72-2.13 3.194 0 5.928 1.698 5.928 6.792m13.67.748c0-2.907-1.698-4.921-4.288-4.921-2.59 0-4.288 2.014-4.288 4.864 0 2.877 1.698 4.863 4.288 4.863 2.59 0 4.288-1.986 4.288-4.806zm3.079-7.367v14.13c0 4-2.245 6.532-7.54 6.532-3.914 0-6.648-1.812-6.936-5.122h3.166c.374 1.67 1.813 2.59 4 2.59 2.705 0 4.23-1.295 4.23-4.115v-1.612c-.978 1.468-2.532 2.389-4.805 2.389-4.03 0-6.965-2.82-6.965-7.482 0-4.518 2.936-7.483 6.936-7.483 2.33 0 3.914 1.008 4.863 2.504l.345-2.331h2.706zM56.063 16.09l-3.224-8.778-3.194 8.778h6.417zM50.969 3.744h3.943l7.511 20.145h-3.54l-1.9-4.98h-8.257l-1.871 4.98h-3.426l7.54-20.145zm35.772 11.827v8.318h-3.137V15.6c0-2.59-1.065-3.942-3.079-3.942-2.13 0-3.482 1.612-3.482 4.259v7.972h-3.108V15.6c0-2.59-1.093-3.942-3.136-3.942-2.13 0-3.454 1.726-3.454 4.345v7.886h-3.108V9.154h2.705l.345 1.957c.864-1.123 2.13-2.1 4.346-2.13 1.928 0 3.654.778 4.518 2.677.978-1.611 2.676-2.676 5.094-2.676 2.964 0 5.496 1.669 5.496 6.59m13.096-.634c-.26-2.215-1.842-3.453-4.001-3.453-1.985 0-3.683 1.324-3.913 3.453h7.914zm-4.116-5.956c4.26 0 7.195 2.705 7.28 7.021 0 .374-.027.777-.085 1.18H91.808v.173c.144 2.532 1.669 4.173 4.144 4.173 1.87 0 3.28-.921 3.712-2.59h3.108c-.547 2.907-2.993 5.122-6.619 5.122-4.662 0-7.597-2.992-7.597-7.511 0-4.576 2.906-7.568 7.165-7.568zm17.93.172v2.907h-1.382c-2.763 0-3.654 2.13-3.654 4.46v7.368h-3.109V9.154h2.763l.346 2.245c.748-1.266 1.928-2.245 4.345-2.245h.69m2.619 14.735h3.11V9.154h-3.11v14.735zm3.455-18.765c0 1.094-.834 1.87-1.899 1.87s-1.9-.776-1.9-1.87c0-1.064.835-1.841 1.9-1.841s1.9.777 1.9 1.841zm9.525 18.937c-4.46 0-7.368-3.022-7.368-7.569 0-4.518 2.936-7.51 7.425-7.51 3.712 0 6.159 2.1 6.705 5.41h-3.192c-.404-1.669-1.727-2.763-3.57-2.763-2.532 0-4.172 1.986-4.172 4.863 0 2.907 1.64 4.922 4.172 4.922 1.9 0 3.223-1.094 3.597-2.82h3.195c-.604 3.366-3.05 5.467-6.792 5.467m18.735-6.733h-3.828c-1.928 0-3.05.747-3.05 2.215 0 1.266 1.064 2.101 2.762 2.101 2.59 0 4.116-1.525 4.116-3.799v-.517zm4.661 3.855v2.706h-1.64c-2.014 0-2.676-.921-2.676-2.389-.979 1.525-2.475 2.561-4.892 2.561-3.223 0-5.468-1.554-5.468-4.316 0-3.022 2.187-4.72 6.303-4.72h3.712v-.892c0-1.64-1.238-2.676-3.252-2.676-1.842 0-3.05.863-3.281 2.187h-3.05c.316-2.965 2.763-4.662 6.475-4.662 3.914 0 6.216 1.87 6.216 5.352v5.814c0 .748.345 1.035.95 1.035h.603zm15.639-5.409v8.115h-3.108v-7.915c0-2.82-1.208-4.317-3.54-4.317-2.474 0-3.942 1.813-3.942 4.806v7.425h-3.108V9.154h2.706l.345 1.957c.92-1.18 2.359-2.13 4.72-2.13 3.194 0 5.927 1.698 5.927 6.793M56.062 69.03l-3.223-8.778-3.194 8.778h6.417zm-5.093-12.347h3.942l7.512 20.145h-3.54l-1.9-4.978h-8.259l-1.87 4.978h-3.425l7.54-20.144zm14.89 15.281c.116 1.525 1.526 2.648 3.655 2.648 1.9 0 3.194-.748 3.194-1.985 0-1.554-1.353-1.727-3.597-1.986-3.31-.404-5.956-1.094-5.956-4.144 0-2.792 2.502-4.634 5.985-4.605 3.597.029 6.13 1.698 6.36 4.72h-3.022c-.144-1.324-1.439-2.33-3.28-2.33-1.813 0-3.022.776-3.022 1.955 0 1.382 1.41 1.497 3.51 1.756 3.339.403 6.073 1.122 6.073 4.403 0 2.82-2.648 4.605-6.216 4.605-3.914 0-6.59-1.842-6.676-5.036h2.992m14.217-.001c.116 1.525 1.526 2.648 3.655 2.648 1.899 0 3.194-.748 3.194-1.985 0-1.554-1.352-1.727-3.597-1.986-3.31-.404-5.957-1.094-5.957-4.144 0-2.792 2.504-4.634 5.986-4.605 3.597.029 6.13 1.698 6.36 4.72h-3.022c-.144-1.324-1.439-2.33-3.28-2.33-1.813 0-3.022.776-3.022 1.955 0 1.382 1.41 1.497 3.51 1.756 3.339.403 6.073 1.122 6.073 4.403 0 2.82-2.648 4.605-6.216 4.605-3.914 0-6.59-1.842-6.676-5.036h2.992m23.426-2.504c0-2.85-1.727-4.892-4.346-4.892-2.619 0-4.316 2.043-4.316 4.892 0 2.85 1.697 4.892 4.316 4.892 2.619 0 4.346-2.043 4.346-4.892zm-11.857 0c0-4.49 3.022-7.54 7.511-7.54 4.49 0 7.512 3.05 7.512 7.54 0 4.518-3.022 7.54-7.512 7.54-4.489 0-7.511-3.022-7.511-7.54zm23.944 7.54c-4.46 0-7.367-3.022-7.367-7.569 0-4.518 2.936-7.511 7.425-7.511 3.713 0 6.158 2.101 6.705 5.41h-3.193c-.403-1.669-1.727-2.762-3.568-2.762-2.533 0-4.173 1.986-4.173 4.863 0 2.906 1.64 4.921 4.173 4.921 1.899 0 3.223-1.093 3.597-2.82h3.194c-.605 3.367-3.05 5.468-6.791 5.468m9.093-.173h3.109V62.094h-3.109v14.734zm3.454-18.763c0 1.093-.836 1.87-1.9 1.87s-1.899-.777-1.899-1.87c0-1.065.835-1.842 1.9-1.842 1.063 0 1.899.777 1.899 1.842zm11.655 12.202h-3.828c-1.928 0-3.05.747-3.05 2.216 0 1.266 1.064 2.1 2.762 2.1 2.59 0 4.116-1.525 4.116-3.798v-.518zm4.661 3.856v2.705h-1.64c-2.015 0-2.676-.92-2.676-2.389-.978 1.525-2.475 2.562-4.893 2.562-3.223 0-5.467-1.554-5.467-4.316 0-3.023 2.187-4.721 6.302-4.721h3.713v-.892c0-1.64-1.238-2.676-3.252-2.676-1.842 0-3.05.863-3.281 2.187h-3.05c.316-2.964 2.762-4.662 6.475-4.662 3.913 0 6.215 1.87 6.215 5.353v5.813c0 .749.345 1.036.95 1.036h.604zm2.505-9.295h-2.561v-2.734h2.561v-4.115h3.137v4.115h3.54v2.734h-3.54v7.683c0 1.151.402 1.612 1.524 1.612h2.332v2.705h-2.993c-2.792 0-4-1.323-4-4v-8m9.159 12h3.109V62.094h-3.109v14.734zm3.454-18.763c0 1.093-.834 1.87-1.9 1.87-1.064 0-1.899-.777-1.899-1.87 0-1.065.835-1.842 1.9-1.842s1.899.777 1.899 1.842zm13.447 11.396c0-2.85-1.727-4.892-4.346-4.892-2.619 0-4.316 2.043-4.316 4.892 0 2.85 1.697 4.892 4.316 4.892 2.619 0 4.345-2.043 4.345-4.892zm-11.857 0c0-4.49 3.022-7.54 7.511-7.54 4.49 0 7.511 3.05 7.511 7.54 0 4.518-3.021 7.54-7.511 7.54-4.489 0-7.51-3.022-7.51-7.54zm30.707-.748v8.115h-3.108v-7.914c0-2.82-1.209-4.317-3.54-4.317-2.475 0-3.943 1.814-3.943 4.806v7.425h-3.108V62.094h2.705l.346 1.957c.92-1.18 2.36-2.13 4.72-2.13 3.194 0 5.927 1.698 5.927 6.792m4.196 6.174h.415a.494.494 0 00.318-.1.344.344 0 00.126-.284.31.31 0 00-.12-.263.536.536 0 00-.324-.09h-.415v.737zm.435-1.112c.269 0 .486.067.647.202.162.135.243.31.243.526 0 .169-.047.31-.142.425a.755.755 0 01-.394.243l.546.91h-.495l-.486-.82h-.354v.82h-.445v-2.307h.88zm1.355.293a1.527 1.527 0 00-.592-.601 1.682 1.682 0 00-.854-.218c-.31 0-.592.073-.844.218-.253.144-.45.345-.592.601a1.765 1.765 0 00-.212.87c0 .317.07.602.212.855.142.252.339.45.592.591.252.142.534.213.844.213.317 0 .602-.073.854-.217a1.55 1.55 0 00.592-.597c.142-.253.213-.538.213-.855 0-.317-.071-.603-.213-.86zm-3.271-.197a2.01 2.01 0 01.758-.754c.32-.18.676-.273 1.067-.273.398 0 .757.092 1.077.273a2.055 2.055 0 011.036 1.811c0 .39-.092.743-.278 1.057-.185.314-.438.56-.758.743-.32.183-.68.273-1.077.273-.39 0-.747-.09-1.067-.273a2.032 2.032 0 01-1.037-1.79c0-.39.093-.747.279-1.067z" fill="#002158"/></g></svg>