<svg xmlns="http://www.w3.org/2000/svg" viewBox="0 0 600 205.79"><defs><style>.a{fill:#712c6b;}</style></defs><title>upmc-logo-vector1</title><polygon class="a" points="18.13 177.19 25.93 177.19 25.93 198.49 39.53 198.49 39.53 205.19 18.13 205.19 18.13 177.19"/><polygon class="a" points="44.63 177.19 52.43 177.19 52.43 205.19 44.63 205.19 44.63 177.19"/><polygon class="a" points="59.23 177.19 81.53 177.19 81.53 183.99 66.93 183.99 66.93 188.69 80.23 188.69 80.23 195.09 66.93 195.09 66.93 205.09 59.13 205.09 59.13 177.19 59.23 177.19"/><polygon class="a" points="86.83 177.19 109.43 177.19 109.43 183.79 94.63 183.79 94.63 188.19 108.03 188.19 108.03 194.29 94.63 194.29 94.63 198.79 109.63 198.79 109.63 205.39 86.83 205.39 86.83 177.19"/><path class="a" d="M127.13,191.29a14.41,14.41,0,0,1,14.8-14.6c5.8,0,9.4,2.4,11.9,5.7l-5.9,4.5c-1.6-1.9-3.5-3.3-6.1-3.3-4,0-6.6,3.3-6.6,7.5s2.8,7.5,6.6,7.5c3,0,4.7-1.4,6.3-3.5l5.9,4.2c-2.6,3.7-6.3,6.3-12.4,6.3A13.92,13.92,0,0,1,127.13,191.29Z"/><polygon class="a" points="158.83 177.19 166.63 177.19 166.63 187.59 176.63 187.59 176.63 177.19 184.43 177.19 184.43 205.19 176.63 205.19 176.63 194.59 166.63 194.59 166.63 205.19 158.83 205.19 158.83 177.19"/><path class="a" d="M200.63,176.79h7.5l12,28.2h-8.4l-1.9-5.1H199l-1.9,5.1h-8.2Zm6.8,17.3-3.1-8-3.1,8Z"/><polygon class="a" points="224.43 177.19 231.73 177.19 243.23 191.99 243.23 177.19 250.93 177.19 250.93 205.19 244.13 205.19 232.03 189.89 232.03 205.19 224.43 205.19 224.43 177.19"/><path class="a" d="M256.63,191.29c0-8.2,6.5-14.6,15-14.6a16.83,16.83,0,0,1,11.3,4l-4.5,5.6a9.61,9.61,0,0,0-6.8-2.6c-4,0-7.1,3.3-7.1,7.7a7.43,7.43,0,0,0,7.7,7.8,7,7,0,0,0,4.5-1.2v-3.5h-5.6v-5.6H284v12.5a19.13,19.13,0,0,1-12.2,4.4C263.13,205.79,256.63,199.69,256.63,191.29Z"/><polygon class="a" points="290.13 177.19 297.93 177.19 297.93 205.19 290.13 205.19 290.13 177.19"/><polygon class="a" points="304.73 177.19 312.13 177.19 323.63 191.99 323.63 177.19 331.23 177.19 331.23 205.19 324.43 205.19 312.43 189.89 312.43 205.19 304.73 205.19 304.73 177.19"/><path class="a" d="M336.83,191.29c0-8.2,6.5-14.6,15-14.6a16.83,16.83,0,0,1,11.3,4l-4.5,5.6a9.61,9.61,0,0,0-6.8-2.6c-4,0-7.1,3.3-7.1,7.7a7.43,7.43,0,0,0,7.7,7.8,7,7,0,0,0,4.5-1.2v-3.5h-5.6v-5.6h12.9v12.5a19.13,19.13,0,0,1-12.2,4.4C343.33,205.79,336.83,199.69,336.83,191.29Z"/><polygon class="a" points="382.93 177.19 391.03 177.19 397.73 187.99 404.33 177.19 412.53 177.19 412.53 205.19 404.83 205.19 404.83 189.19 397.73 200.19 397.53 200.19 390.43 189.19 390.43 205.19 382.73 205.19 382.73 177.19 382.93 177.19"/><polygon class="a" points="419.33 177.19 441.83 177.19 441.83 183.79 427.03 183.79 427.03 188.19 440.43 188.19 440.43 194.29 427.03 194.29 427.03 198.79 442.03 198.79 442.03 205.39 419.13 205.39 419.13 177.19 419.33 177.19"/><path class="a" d="M447.73,177.19h10.8c9.9,0,15.9,5.7,15.9,13.9,0,8-5.9,14.1-16,14.1h-10.7Zm7.9,6.8v14.3h3.1c4.7,0,7.8-2.6,7.8-7.1s-3.1-7.1-7.8-7.1h-3.1Z"/><polygon class="a" points="480.33 177.19 488.23 177.19 488.23 205.19 480.33 205.19 480.33 177.19"/><path class="a" d="M493.93,191.29a14.41,14.41,0,0,1,14.8-14.6c5.8,0,9.4,2.4,11.9,5.7l-5.9,4.5c-1.6-1.9-3.5-3.3-6.1-3.3-4,0-6.6,3.3-6.6,7.5s2.8,7.5,6.6,7.5c3,0,4.7-1.4,6.3-3.5l5.9,4.2c-2.6,3.7-6.3,6.3-12.4,6.3A14,14,0,0,1,493.93,191.29Z"/><polygon class="a" points="525.83 177.19 533.73 177.19 533.73 205.19 525.83 205.19 525.83 177.19"/><polygon class="a" points="540.53 177.19 547.83 177.19 559.33 191.99 559.33 177.19 567.03 177.19 567.03 205.19 560.23 205.19 548.23 189.89 548.23 205.19 540.53 205.19 540.53 177.19"/><polygon class="a" points="573.43 177.19 595.93 177.19 595.93 183.79 581.13 183.79 581.13 188.19 594.53 188.19 594.53 194.29 581.13 194.29 581.13 198.79 596.13 198.79 596.13 205.39 573.33 205.39 573.33 177.19 573.43 177.19"/><path class="a" d="M312.8,142.3v-5.9c-12.6-1.7-12.9-5.7-12.2-17.4L309,37.3l45.9,105.2h9.4L412.6,28.4c.7,27.2,1.4,51.4,1.4,86.6,0,15.7-2.3,21.3-15.3,21.6v5.9h57.4v-5.9c-9.6-1.2-13.3-3.3-14.5-9.9-.2-1.2-3.1-34.5-3.1-97,0-15,2.3-20.4,14.5-20.9V2.9H410.3L365.5,106.6,323,2.9H284.1V8.8c11.9.3,14.5,4,14.5,15.9L287.4,125.2c-1.6,9.1-7.1,10.5-17.4,11.5v5.9h43.1v-.3Z"/><path class="a" d="M106,2.6V8.5c7.8.3,12.2,1.9,14.6,6.4,2.8,5.6,2.8,21.8,2.8,53.8,0,24.7-.5,41.5-11.5,53.1-8.2,8.7-20.1,13.1-33.7,13.1-25.1,0-36.3-16.2-36.3-46.3V28.8c0-14.5,1.7-19.3,15.3-20.4V2.5H0V8.4c13.9,1.4,14.6,5.2,14.6,19.2V86.7c0,38.7,22.3,58.9,61.7,58.9,39.1,0,57.7-17.9,59.3-57.5s-.5-63.1,2.6-71.3c1.9-5.2,6.3-7.1,14.6-7.7,3.5-.2,8.2,0,8.2,0,12.9.2,16.6,4.2,16.6,16.9v91.7c0,13.6-2.4,18.3-15.3,18.8v5.9h56.3v-5.9c-12.7-.5-15-5.2-15-17.9V85h8.7c65.6,0,63.6-44.8,63.6-44.8,0-23.3-16.2-38-48.1-38,0,0-47.1.3-53,.3S106,2.6,106,2.6ZM203.6,23c0-9.6,4.5-13.2,16.2-13.2,18.8,0,29.3,9.9,29.3,26.8,0,21.6-14.5,38.7-41.5,38.7-1.4,0-2.8-.2-4.2-.2V23Z"/><path class="a" d="M543.5,131.9c-31.9,0-54.6-22-54.6-65.2,0-37.6,21.8-54.7,51.8-54.7,26.2,0,45.2,8.5,50.4,28.2h5.6V10.6A150.58,150.58,0,0,0,541.3,0c-50.2,0-81.8,29.3-81.8,74.7,0,42.5,29.3,71.1,76.5,71.1,24.2,0,44.8-7,64-21.6l-8.9-13.9C576.6,126.5,561.8,131.9,543.5,131.9Z"/></svg>